<svg xmlns="http://www.w3.org/2000/svg" viewBox="0 0 60.71 60.21"><title>img-ind-branch</title><g id="圖層_6" data-name="圖層 6"><path d="M53.4,27.08a10.21,10.21,0,0,0-1.82,3.72Q53.3,33,56.91,32.95a9.24,9.24,0,0,0,3.22-.48c0-.7.08-1.4.08-2.11a30.15,30.15,0,0,0-.38-4.76,9.45,9.45,0,0,0-2.92-.41A4.4,4.4,0,0,0,53.4,27.08Z" style="fill:#da0012"/><path d="M56.91,33.45c-2.56,0-4.49-.79-5.72-2.33l-.16-.2.07-.25A10.76,10.76,0,0,1,53,26.77a4.89,4.89,0,0,1,3.9-2.09,10,10,0,0,1,3.08.43l.29.09,0,.3a30.79,30.79,0,0,1,.39,4.84c0,.75,0,1.47-.08,2.14l0,.32-.3.11A9.67,9.67,0,0,1,56.91,33.45Zm-4.78-2.76a6,6,0,0,0,4.78,1.76,9.46,9.46,0,0,0,2.74-.35c0-.56.06-1.15.06-1.75A29.63,29.63,0,0,0,59.39,26a9.44,9.44,0,0,0-2.48-.3,3.89,3.89,0,0,0-3.12,1.71h0A9.6,9.6,0,0,0,52.13,30.69Z" style="fill:#da0012"/><path d="M30.31,10.16q-6.45,0-6.45,9a7.12,7.12,0,0,0,3.08,5.69,16.33,16.33,0,0,0,6,3q3.48-2.79,3.48-8.65Q36.47,10.16,30.31,10.16Z" style="fill:#da0012"/><path d="M33.1,28.37l-.25-.07a16.92,16.92,0,0,1-6.22-3.06,7.63,7.63,0,0,1-3.26-6.08c0-6.3,2.34-9.5,6.95-9.5,4.42,0,6.66,3.2,6.66,9.5,0,4-1.24,7.09-3.67,9ZM30.31,10.66c-4,0-5.95,2.78-5.95,8.5a6.6,6.6,0,0,0,2.89,5.3,15.76,15.76,0,0,0,5.61,2.8c2.06-1.76,3.1-4.49,3.1-8.1C36,13.44,34.12,10.66,30.31,10.66Z" style="fill:#da0012"/><path d="M23.75,36.58a16,16,0,0,0-.87,5.87,13.88,13.88,0,0,0,1.69,7A6.4,6.4,0,0,0,30.31,53a6,6,0,0,0,5.58-3.66,14.63,14.63,0,0,0,1.51-6.92q0-7.72-9.46-9.93A8.25,8.25,0,0,0,23.75,36.58Z" style="fill:#da0012"/><path d="M30.31,53.52a6.9,6.9,0,0,1-6.18-3.85,14.43,14.43,0,0,1-1.75-7.22,16.59,16.59,0,0,1,.91-6.05v0a8.78,8.78,0,0,1,4.43-4.31l.16-.07L28,32c6.54,1.53,9.85,5,9.85,10.42a15.2,15.2,0,0,1-1.57,7.15A6.44,6.44,0,0,1,30.31,53.52ZM24.21,36.78a15.69,15.69,0,0,0-.83,5.67A13.44,13.44,0,0,0,25,49.17a5.89,5.89,0,0,0,5.32,3.35,5.45,5.45,0,0,0,5.13-3.38,14.24,14.24,0,0,0,1.45-6.69c0-4.88-2.91-8-8.91-9.4A7.75,7.75,0,0,0,24.21,36.78Z" style="fill:#da0012"/><path d="M8.06,22.36a8,8,0,0,1,2.69,3.79,9.48,9.48,0,0,1,2.79-3.26,6.64,6.64,0,0,1,4-1.36l.53,0a10.86,10.86,0,0,1-.14-1.7,11,11,0,0,1,3.37-8.48A12.77,12.77,0,0,1,30.2,8.24a13,13,0,0,1,8.94,3q3.31,3,3.31,8.48a8.21,8.21,0,0,1-.08,1.08h.29A6.77,6.77,0,0,1,47,22.36a8,8,0,0,1,2.68,3.79,9.64,9.64,0,0,1,2.79-3.26,6.65,6.65,0,0,1,4-1.36A8.31,8.31,0,0,1,59,21.9,29.86,29.86,0,0,0,2,20.88a10.49,10.49,0,0,1,1.69-.13A6.77,6.77,0,0,1,8.06,22.36Z" style="fill:#da0012"/><path d="M10.65,27.41l-.37-1.1a7.48,7.48,0,0,0-2.52-3.56h0a6.31,6.31,0,0,0-4-1.5,10,10,0,0,0-1.61.13l-.82.13.26-.79a30.36,30.36,0,0,1,57.9,1l.26.9-.89-.28A7.87,7.87,0,0,0,56.48,22a6.19,6.19,0,0,0-3.71,1.26,9.19,9.19,0,0,0-2.65,3.09l-.55,1-.36-1.1a7.51,7.51,0,0,0-2.52-3.56,6.24,6.24,0,0,0-4-1.5l-.86,0,.08-.58a7.64,7.64,0,0,0,.07-1c0-3.51-1.06-6.24-3.15-8.11A12.62,12.62,0,0,0,30.2,8.74a12.34,12.34,0,0,0-8.55,3,10.59,10.59,0,0,0-3.21,8.11,10.36,10.36,0,0,0,.13,1.62l.1.61-.62,0-.5,0a6.18,6.18,0,0,0-3.71,1.26,9,9,0,0,0-2.65,3.09Zm32.28-7.16A7.34,7.34,0,0,1,47.31,22,8.58,8.58,0,0,1,49.77,25a10,10,0,0,1,2.41-2.54A7.17,7.17,0,0,1,56.48,21a9.25,9.25,0,0,1,1.77.17,29.36,29.36,0,0,0-55.47-.92c.31,0,.63,0,1,0A7.28,7.28,0,0,1,8.38,22,8.63,8.63,0,0,1,10.83,25a9.84,9.84,0,0,1,2.41-2.54A7.16,7.16,0,0,1,17.5,21a11.2,11.2,0,0,1-.06-1.18A11.55,11.55,0,0,1,21,11,13.32,13.32,0,0,1,30.2,7.74a13.58,13.58,0,0,1,9.27,3.09c2.31,2.07,3.48,5,3.48,8.85C42.95,19.87,42.94,20.06,42.93,20.25Z" style="fill:#da0012"/><path d="M24.63,30.41c0,.29-.08.57-.13.84.31-.13.62-.25.94-.36C25.15,30.74,24.89,30.57,24.63,30.41Z"/><path d="M.63,33.1a10.11,10.11,0,0,0,3,.43q4.76,0,6.12-5.83a5.07,5.07,0,0,0-2.51-2.58,9.83,9.83,0,0,0-3.61-.54A9.55,9.55,0,0,0,1,24.94a29.67,29.67,0,0,0-.5,5.42C.5,31.28.55,32.2.63,33.1Z" style="fill:#da0012"/><path d="M3.63,34a10.56,10.56,0,0,1-3.15-.45l-.32-.1,0-.33C0,32.2,0,31.26,0,30.36a30.22,30.22,0,0,1,.51-5.51l.06-.31.3-.08a10,10,0,0,1,2.77-.38,10.21,10.21,0,0,1,3.8.57,5.58,5.58,0,0,1,2.77,2.83l.07.16,0,.17C9.27,31.93,7,34,3.63,34ZM1.1,32.71A9.73,9.73,0,0,0,3.63,33c2.88,0,4.71-1.73,5.59-5.28A4.49,4.49,0,0,0,7,25.57a9.43,9.43,0,0,0-3.4-.49,9.06,9.06,0,0,0-2.2.26,29.28,29.28,0,0,0-.43,5C1,31.13,1,31.92,1.1,32.71Z" style="fill:#da0012"/><path d="M53,35.35a7.83,7.83,0,0,1-2.36-2.94A7.06,7.06,0,0,1,47.75,36a8.34,8.34,0,0,1-4.51,1.33H43a13.25,13.25,0,0,1,.62,4q0,6.34-3.77,9.93A13.91,13.91,0,0,1,29.73,55q-6,0-9.52-3.37t-3.54-9.35a10.62,10.62,0,0,1,1.65-5.67l-.66,0a5.85,5.85,0,0,1-3.54-1.29,7.87,7.87,0,0,1-2.36-2.94A7.09,7.09,0,0,1,8.81,36a8.34,8.34,0,0,1-4.51,1.33,10,10,0,0,1-3.07-.45,29.85,29.85,0,0,0,58.42-.8,8.14,8.14,0,0,1-3.07.54A5.84,5.84,0,0,1,53,35.35Z" style="fill:#801a21"/><path d="M20.15,26.36a12.76,12.76,0,0,1-.71-1.09A12.34,12.34,0,0,0,18,25.19a4.4,4.4,0,0,0-3.51,1.9,10.09,10.09,0,0,0-1.83,3.72Q14.37,33,18,32.95c3.44,0,5.26-1.11,5.5-3.3A15.07,15.07,0,0,1,20.15,26.36Z" style="fill:#da0012"/><path d="M18,33.45a6.93,6.93,0,0,1-5.72-2.33l-.16-.2.07-.25a10.63,10.63,0,0,1,1.92-3.9A4.89,4.89,0,0,1,18,24.69a12.92,12.92,0,0,1,1.52.09l.25,0,.13.22a12.41,12.41,0,0,0,.68,1,14.65,14.65,0,0,0,3.22,3.18l.23.17,0,.29C23.71,32.19,21.69,33.45,18,33.45ZM13.2,30.69A6,6,0,0,0,18,32.45c3,0,4.63-.84,5-2.58a15.53,15.53,0,0,1-3.19-3.21h0c-.21-.29-.41-.59-.61-.91A11.61,11.61,0,0,0,18,25.69a3.9,3.9,0,0,0-3.12,1.71A9.49,9.49,0,0,0,13.2,30.69Z" style="fill:#da0012"/><path d="M36.05,29s0,.09,0,.14,0,.2,0,.29a11.35,11.35,0,0,1,5,4,11.19,11.19,0,0,0,1.53.11q4.75,0,6.12-5.83a5.08,5.08,0,0,0-2.5-2.58,9.88,9.88,0,0,0-3.62-.54,10.38,10.38,0,0,0-1.71.15c-.15.24-.31.47-.49.71A12.77,12.77,0,0,1,36.05,29Z" style="fill:#da0012"/><path d="M42.56,34A11.64,11.64,0,0,1,41,33.91l-.21,0-.12-.17a10.9,10.9,0,0,0-4.75-3.79l-.3-.12v-.32c0-.17,0-.24,0-.31l0-.39.25-.19A12.34,12.34,0,0,0,40,25.13c.17-.22.32-.45.47-.67l.12-.19.22,0a10.79,10.79,0,0,1,1.79-.16,10.25,10.25,0,0,1,3.8.57,5.6,5.6,0,0,1,2.77,2.83l.07.16,0,.17C48.2,31.93,46,34,42.56,34Zm-1.25-1.08a10.43,10.43,0,0,0,1.25.08c2.89,0,4.72-1.73,5.59-5.28A4.5,4.5,0,0,0,46,25.57a11,11,0,0,0-4.82-.38c-.12.18-.25.37-.39.55a13.28,13.28,0,0,1-4,3.47A11.92,11.92,0,0,1,41.31,32.95Z" style="fill:#da0012"/><path d="M19.44,25.27a12.76,12.76,0,0,0,.71,1.09,15.07,15.07,0,0,0,3.33,3.29,4,4,0,0,0,.05-.49C23.53,26.89,22.16,25.6,19.44,25.27Z" style="fill:#fff"/><path d="M23.87,30.56l-.69-.51a15.65,15.65,0,0,1-3.44-3.4A13.49,13.49,0,0,1,19,25.53l-.51-.87,1,.12c3.74.45,4.52,2.63,4.52,4.38a3,3,0,0,1,0,.42ZM20.49,26l.07.09A14.25,14.25,0,0,0,23,28.65,3,3,0,0,0,20.49,26Z" style="fill:#fff"/><path d="M36.06,29.45A3.69,3.69,0,0,0,38.3,32.6a8.09,8.09,0,0,0,2.73.82A11.35,11.35,0,0,0,36.06,29.45Z" style="fill:#fff"/><path d="M42.12,34.06,41,33.91a8.61,8.61,0,0,1-2.9-.87,4.17,4.17,0,0,1-2.5-3.55l-.05-.8.74.3a11.89,11.89,0,0,1,5.19,4.13Zm-5.37-3.75a3.39,3.39,0,0,0,1.78,1.83,6.65,6.65,0,0,0,1.24.49A10.76,10.76,0,0,0,36.75,30.32Z" style="fill:#fff"/><path d="M39.14,11.2a13,13,0,0,0-8.94-3,12.77,12.77,0,0,0-8.89,3.14,11,11,0,0,0-3.37,8.48,10.86,10.86,0,0,0,.14,1.7,6.63,6.63,0,0,1,4.7,2.06,7.88,7.88,0,0,1,1.93,5.47,11.46,11.46,0,0,1-.08,1.32c.27.16.53.34.8.49-.32.11-.63.22-.94.36a7.15,7.15,0,0,1-1.61,3.35,6.39,6.39,0,0,1-4.56,2,10.62,10.62,0,0,0-1.65,5.67q0,6,3.54,9.35T29.73,55a13.91,13.91,0,0,0,10.11-3.72q3.78-3.6,3.77-9.93a13.25,13.25,0,0,0-.62-4A8,8,0,0,1,37.12,35a8.57,8.57,0,0,1-2.29-6.23,8.16,8.16,0,0,1,2.08-5.87,7.45,7.45,0,0,1,5.47-2.17,8.21,8.21,0,0,0,.08-1.08Q42.45,14.17,39.14,11.2ZM37.4,42.45a14.63,14.63,0,0,1-1.51,6.92A6,6,0,0,1,30.31,53a6.4,6.4,0,0,1-5.75-3.6,13.88,13.88,0,0,1-1.69-7,16,16,0,0,1,.87-5.87,8.25,8.25,0,0,1,4.19-4.06Q37.39,34.73,37.4,42.45ZM33,27.82a16.33,16.33,0,0,1-6-3,7.12,7.12,0,0,1-3.08-5.69q0-9,6.45-9,6.16,0,6.16,9Q36.47,25,33,27.82Z" style="fill:#fff"/><path d="M29.73,55.5c-4.1,0-7.42-1.18-9.87-3.5s-3.7-5.6-3.7-9.71a11.16,11.16,0,0,1,1.73-5.93l.14-.22.26,0a5.93,5.93,0,0,0,4.22-1.85A6.6,6.6,0,0,0,24,31.15l.05-.26.24-.1-.2-.12,0-.32a11,11,0,0,0,.07-1.27,7.43,7.43,0,0,0-1.8-5.14A6.09,6.09,0,0,0,18,22.05l-.4,0-.06-.4a11.4,11.4,0,0,1-.14-1.77A11.55,11.55,0,0,1,21,11,13.32,13.32,0,0,1,30.2,7.74a13.58,13.58,0,0,1,9.27,3.09h0c2.31,2.07,3.48,5,3.48,8.85a8.77,8.77,0,0,1-.08,1.14l-.06.42h-.43a6.91,6.91,0,0,0-5.12,2,7.71,7.71,0,0,0-1.94,5.52,8.12,8.12,0,0,0,2.15,5.88A7.44,7.44,0,0,0,43,36.85h.36l.11.34a13.81,13.81,0,0,1,.64,4.15c0,4.35-1.32,7.81-3.93,10.29A14.45,14.45,0,0,1,29.73,55.5ZM18.61,37.09a10.13,10.13,0,0,0-1.45,5.19c0,3.83,1.14,6.85,3.39,9s5.34,3.23,9.18,3.23a13.48,13.48,0,0,0,9.76-3.57c2.4-2.29,3.62-5.51,3.62-9.57a12.81,12.81,0,0,0-.49-3.51,8.36,8.36,0,0,1-5.87-2.46,9.08,9.08,0,0,1-2.43-6.57,11.91,11.91,0,0,1,.12-1.69,8.84,8.84,0,0,1-1.15,1.1l-.2.16-.25-.07a16.92,16.92,0,0,1-6.22-3.06,7.63,7.63,0,0,1-3.26-6.08c0-6.3,2.34-9.5,6.95-9.5,4.42,0,6.66,3.2,6.66,9.5a16.11,16.11,0,0,1-.32,3.32,7.84,7.84,0,0,1,5.28-2.2c0-.21,0-.4,0-.59,0-3.51-1.06-6.24-3.14-8.1A12.62,12.62,0,0,0,30.2,8.74a12.34,12.34,0,0,0-8.55,3,10.59,10.59,0,0,0-3.21,8.11,10.15,10.15,0,0,0,.08,1.23,7,7,0,0,1,4.62,2.18,8.4,8.4,0,0,1,2.06,5.82c0,.35,0,.71,0,1.06.17.11.33.21.51.31l1,.55-1.09.37-.67.24a7.59,7.59,0,0,1-1.67,3.32A6.8,6.8,0,0,1,18.61,37.09Zm11.7-26.43c-4,0-5.95,2.78-5.95,8.5a6.6,6.6,0,0,0,2.89,5.3,15.76,15.76,0,0,0,5.61,2.8c2.06-1.76,3.1-4.49,3.1-8.1C36,13.44,34.12,10.66,30.31,10.66Zm0,42.86a6.9,6.9,0,0,1-6.18-3.85,14.43,14.43,0,0,1-1.75-7.22,16.59,16.59,0,0,1,.91-6.05,8.78,8.78,0,0,1,4.44-4.33l.16-.07L28,32c6.54,1.53,9.85,5,9.85,10.42a15.2,15.2,0,0,1-1.57,7.15A6.44,6.44,0,0,1,30.31,53.52ZM28,33a7.75,7.75,0,0,0-3.79,3.75,15.65,15.65,0,0,0-.83,5.66A13.44,13.44,0,0,0,25,49.17a5.89,5.89,0,0,0,5.32,3.35,5.45,5.45,0,0,0,5.13-3.38,14.24,14.24,0,0,0,1.45-6.69C36.9,37.57,34,34.49,28,33Z" style="fill:#fff"/><path d="M36.05,29a12.77,12.77,0,0,0,4.31-3.59c.18-.23.34-.47.49-.71a7.93,7.93,0,0,0-2.59.88A4,4,0,0,0,36.05,29Z" style="fill:#fff"/><path d="M35.52,29.86l0-.85A4.45,4.45,0,0,1,38,25.18a8.46,8.46,0,0,1,2.75-.95L41.88,24l-.61,1c-.16.25-.33.49-.51.74a13.33,13.33,0,0,1-4.48,3.73Zm4.1-4.31a6.51,6.51,0,0,0-1.11.5,3.72,3.72,0,0,0-1.79,2A12.22,12.22,0,0,0,39.62,25.55Z" style="fill:#fff"/><path d="M8.81,36a7.09,7.09,0,0,0,2.94-3.61,7.87,7.87,0,0,0,2.36,2.94,5.85,5.85,0,0,0,3.54,1.29l.66,0a13.85,13.85,0,0,1,1-1.36,13.06,13.06,0,0,1,5.21-4c.06-.27.1-.56.13-.84-.4-.24-.79-.49-1.15-.76-.23,2.19-2.05,3.3-5.5,3.3q-3.61,0-5.33-2.15a10.09,10.09,0,0,1,1.83-3.72A4.4,4.4,0,0,1,18,25.19a12.34,12.34,0,0,1,1.46.09,10.79,10.79,0,0,1-1.37-3.72l-.53,0a6.64,6.64,0,0,0-4,1.36,9.48,9.48,0,0,0-2.79,3.26,8,8,0,0,0-2.69-3.79,6.77,6.77,0,0,0-4.33-1.61A10.49,10.49,0,0,0,2,20.88a29.42,29.42,0,0,0-1,4.06,9.55,9.55,0,0,1,2.63-.36,9.83,9.83,0,0,1,3.61.54,5.07,5.07,0,0,1,2.51,2.58q-1.37,5.83-6.12,5.83a10.11,10.11,0,0,1-3-.43,29.72,29.72,0,0,0,.6,3.8,10,10,0,0,0,3.07.45A8.34,8.34,0,0,0,8.81,36Z" style="fill:#fff"/><path d="M4.3,37.85a10.55,10.55,0,0,1-3.23-.48l-.27-.09L.74,37a30.22,30.22,0,0,1-.61-3.87L.06,32.4l.71.22A9.57,9.57,0,0,0,3.63,33c2.88,0,4.71-1.73,5.59-5.28A4.49,4.49,0,0,0,7,25.57a9.43,9.43,0,0,0-3.4-.49,9,9,0,0,0-2.49.34l-.77.22.15-.79a30,30,0,0,1,1.06-4.13l.1-.29.3,0a11,11,0,0,1,1.77-.14A7.28,7.28,0,0,1,8.38,22,8.61,8.61,0,0,1,10.83,25a9.84,9.84,0,0,1,2.41-2.54A7.16,7.16,0,0,1,17.55,21l.46,0,.4,0,.16.4A10.35,10.35,0,0,0,19.87,25l.5.87-1-.12A11.89,11.89,0,0,0,18,25.69a3.9,3.9,0,0,0-3.12,1.71,9.49,9.49,0,0,0-1.66,3.29A6,6,0,0,0,18,32.45c3.16,0,4.8-.93,5-2.85l.09-.86.7.51c.36.26.73.5,1.12.74l.27.17,0,.32c0,.3-.08.6-.14.88l-.05.26-.24.1a12.63,12.63,0,0,0-5,3.85,13.58,13.58,0,0,0-.93,1.32l-.14.22-.26,0-.69,0a6.37,6.37,0,0,1-3.84-1.39,8.41,8.41,0,0,1-2-2.2,7.79,7.79,0,0,1-2.71,2.9h0A8.86,8.86,0,0,1,4.3,37.85ZM1.66,36.51a9.73,9.73,0,0,0,2.65.35,7.88,7.88,0,0,0,4.24-1.25,6.55,6.55,0,0,0,2.73-3.36l.41-1.14.52,1.1A7.39,7.39,0,0,0,14.42,35,5.55,5.55,0,0,0,18,36.13a13.31,13.31,0,0,1,.85-1.19,14.57,14.57,0,0,1,1.63-1.74,11.44,11.44,0,0,1-2.54.25,6.93,6.93,0,0,1-5.72-2.33l-.16-.2.07-.25a10.63,10.63,0,0,1,1.92-3.9A4.89,4.89,0,0,1,18,24.69h.59A11.17,11.17,0,0,1,17.66,22a6,6,0,0,0-3.82,1.26,9,9,0,0,0-2.65,3.09l-.55,1-.37-1.1a7.48,7.48,0,0,0-2.52-3.56,6.31,6.31,0,0,0-4-1.5,10.21,10.21,0,0,0-1.31.08,29.13,29.13,0,0,0-.78,2.94,10.17,10.17,0,0,1,2-.19,10.22,10.22,0,0,1,3.8.57,5.59,5.59,0,0,1,2.77,2.83l.07.16,0,.17C9.27,31.93,7,34,3.63,34a10.93,10.93,0,0,1-2.43-.26C1.31,34.7,1.46,35.61,1.66,36.51Zm22.16-6a3.6,3.6,0,0,1-.25.63l.49-.23,0-.23Z" style="fill:#fff"/><path d="M22.77,23.61a6.63,6.63,0,0,0-4.7-2.06,10.79,10.79,0,0,0,1.37,3.72c2.72.33,4.08,1.62,4.08,3.88a4,4,0,0,1-.05.49c.37.27.76.52,1.15.76a11.46,11.46,0,0,0,.08-1.32A7.88,7.88,0,0,0,22.77,23.61Z" style="fill:#fff"/><path d="M25,31.24l-.67-.41c-.41-.25-.81-.51-1.18-.78l-.24-.17.05-.44a2,2,0,0,0,0-.28c0-2-1.16-3.09-3.64-3.39l-.25,0L19,25.53a11.33,11.33,0,0,1-1.43-3.89l-.1-.61.62,0a7.15,7.15,0,0,1,5,2.21h0a8.4,8.4,0,0,1,2.06,5.81,12.08,12.08,0,0,1-.08,1.38Zm-1-1.83.18.12c0-.15,0-.3,0-.46a7.43,7.43,0,0,0-1.8-5.14,5.9,5.9,0,0,0-3.71-1.83,10.49,10.49,0,0,0,1.06,2.7c3.52.51,4.27,2.64,4.27,4.35A2.42,2.42,0,0,1,24,29.42Z" style="fill:#fff"/><path d="M24.49,31.25a13.06,13.06,0,0,0-5.21,4,13.85,13.85,0,0,0-1,1.36,6.39,6.39,0,0,0,4.56-2A7.15,7.15,0,0,0,24.49,31.25Z" style="fill:#fff"/><path d="M17.37,37.17l.52-.83a14.41,14.41,0,0,1,1-1.41,13.61,13.61,0,0,1,5.41-4.14l.88-.37-.19.93a7.67,7.67,0,0,1-1.73,3.58,6.89,6.89,0,0,1-4.9,2.18Zm6.35-5a12.8,12.8,0,0,0-4.05,3.39l-.32.42a5.53,5.53,0,0,0,3.16-1.71A6.22,6.22,0,0,0,23.72,32.17Z" style="fill:#fff"/><path d="M56.91,32.95q-3.62,0-5.33-2.15a10.21,10.21,0,0,1,1.82-3.72,4.4,4.4,0,0,1,3.51-1.9,9.45,9.45,0,0,1,2.92.41A29.67,29.67,0,0,0,59,21.9a8.31,8.31,0,0,0-2.51-.37,6.65,6.65,0,0,0-4,1.36,9.64,9.64,0,0,0-2.79,3.26A8,8,0,0,0,47,22.36a6.77,6.77,0,0,0-4.33-1.61h-.29a9.45,9.45,0,0,1-1.52,4,10.38,10.38,0,0,1,1.71-.15,9.88,9.88,0,0,1,3.62.54,5.08,5.08,0,0,1,2.5,2.58q-1.36,5.83-6.12,5.83A11.19,11.19,0,0,1,41,33.42c.15.2.3.4.43.62A14.35,14.35,0,0,1,43,37.35h.24A8.34,8.34,0,0,0,47.75,36a7.06,7.06,0,0,0,2.94-3.61A7.83,7.83,0,0,0,53,35.35a5.84,5.84,0,0,0,3.54,1.29,8.14,8.14,0,0,0,3.07-.54,29.68,29.68,0,0,0,.48-3.63A9.24,9.24,0,0,1,56.91,32.95Z" style="fill:#fff"/><path d="M43.23,37.85h-.51l-.2-.35A13.92,13.92,0,0,0,41,34.3c-.12-.19-.26-.38-.39-.56l-.7-.95,1.15.13a10.74,10.74,0,0,0,1.46.11c2.89,0,4.72-1.73,5.59-5.28A4.5,4.5,0,0,0,46,25.57a9.46,9.46,0,0,0-3.41-.49,9.84,9.84,0,0,0-1.63.14l-1.12.19.62-1a9,9,0,0,0,1.45-3.76l.06-.43.73,0A7.3,7.3,0,0,1,47.31,22,8.58,8.58,0,0,1,49.77,25a10,10,0,0,1,2.41-2.54A7.17,7.17,0,0,1,56.48,21a8.88,8.88,0,0,1,2.66.39l.25.08.08.26a30.39,30.39,0,0,1,.86,3.75l.13.81-.78-.25a9,9,0,0,0-2.77-.38,3.89,3.89,0,0,0-3.12,1.71,9.6,9.6,0,0,0-1.66,3.29,6,6,0,0,0,4.78,1.76A8.86,8.86,0,0,0,60,32l.73-.27-.06.78a30.18,30.18,0,0,1-.49,3.69l-.05.27-.25.1a8.68,8.68,0,0,1-3.26.57,6.35,6.35,0,0,1-3.84-1.39,8.33,8.33,0,0,1-2-2.2A7.77,7.77,0,0,1,48,36.45,8.88,8.88,0,0,1,43.23,37.85ZM42,34a14.93,14.93,0,0,1,1.32,2.84,7.92,7.92,0,0,0,4.12-1.24,6.51,6.51,0,0,0,2.73-3.36l.41-1.15.52,1.1A7.37,7.37,0,0,0,53.35,35a5.37,5.37,0,0,0,3.24,1.18,7.93,7.93,0,0,0,2.63-.41c.15-.82.27-1.68.36-2.57a11,11,0,0,1-2.66.28c-2.56,0-4.49-.79-5.72-2.33l-.16-.2.07-.25A10.75,10.75,0,0,1,53,26.77a4.89,4.89,0,0,1,3.9-2.08,11,11,0,0,1,2.29.22c-.16-.86-.37-1.73-.62-2.6A8,8,0,0,0,56.48,22a6.19,6.19,0,0,0-3.71,1.26,9.18,9.18,0,0,0-2.65,3.09l-.55,1-.36-1.1a7.51,7.51,0,0,0-2.52-3.56,6.27,6.27,0,0,0-3.88-1.5,9.77,9.77,0,0,1-1,2.86l.76,0a10.25,10.25,0,0,1,3.8.57,5.6,5.6,0,0,1,2.77,2.83l.07.16,0,.17C48.2,31.93,46,34,42.56,34Z" style="fill:#fff"/><path d="M36.05,29c-.15.08-.3.17-.45.25l.46.18c0-.09,0-.19,0-.29S36.05,29.07,36.05,29Z" style="fill:#fff"/><path d="M36.59,30.19l-.93-.36-.23-.09-1.13-.41,1.08-.51.21-.12.23-.12.73-.37v.92a1.28,1.28,0,0,0,0,.16Z" style="fill:#fff"/><path d="M34.83,28.8A8.57,8.57,0,0,0,37.12,35,8,8,0,0,0,43,37.35,14.35,14.35,0,0,0,41.46,34c-.13-.21-.28-.41-.43-.62a8.09,8.09,0,0,1-2.73-.82,3.69,3.69,0,0,1-2.24-3.14l-.46-.18c.16-.07.3-.17.45-.25a4,4,0,0,1,2.21-3.41,7.93,7.93,0,0,1,2.59-.88,9.45,9.45,0,0,0,1.52-4,7.45,7.45,0,0,0-5.47,2.17A8.16,8.16,0,0,0,34.83,28.8Z" style="fill:#fff"/><path d="M43.68,37.86H43a8.5,8.5,0,0,1-6.23-2.47,8.9,8.9,0,0,1-2.42-6h0l0,0c0-.17,0-.34,0-.51a8.67,8.67,0,0,1,2.21-6.21,8,8,0,0,1,5.82-2.33h.58l-.08.58A10,10,0,0,1,41.27,25l-.12.18-.21,0a7.47,7.47,0,0,0-2.42.83,3.47,3.47,0,0,0-2,3v.38a3.19,3.19,0,0,0,2,2.73,7.64,7.64,0,0,0,2.57.77l.21,0,.13.17c.17.23.32.43.45.65a14.9,14.9,0,0,1,1.59,3.43Zm-8.32-8.15a7.79,7.79,0,0,0,2.11,5,7.15,7.15,0,0,0,4.81,2.13A13.93,13.93,0,0,0,41,34.3c-.09-.14-.19-.28-.29-.42A8.46,8.46,0,0,1,38.06,33a4.19,4.19,0,0,1-2.47-3.24l-.16-.06Zm6.41-8.42a6.66,6.66,0,0,0-4.51,2,7.71,7.71,0,0,0-1.94,5.52v0l.06,0,.18-.1A4.48,4.48,0,0,1,38,25.18a8.31,8.31,0,0,1,2.53-.91A9.15,9.15,0,0,0,41.78,21.29Z" style="fill:#fff"/><ellipse cx="24.48" cy="30.89" rx="0.95" ry="0.73" style="fill:#fff"/><path d="M24.48,32.12a1.25,1.25,0,1,1,0-2.46,1.36,1.36,0,0,1,1.45,1.23A1.34,1.34,0,0,1,24.48,32.12Zm0-1.46c-.28,0-.45.15-.45.23s.17.23.45.23.45-.15.45-.23S24.76,30.66,24.48,30.66Z" style="fill:#fff"/></g></svg>