<svg xmlns="http://www.w3.org/2000/svg" viewBox="0 0 153.93 153.92"><title>bg-img</title><g id="圖層_6" data-name="圖層 6"><g style="opacity:0.5"><path d="M70.79,83.09a20.52,20.52,0,0,0-10.23,10c-1.44,3.57-2.18,8.54-2.18,14.75a35,35,0,0,0,4.23,17.52c3.48,6,8.12,8.9,14.19,8.9s10.68-3,13.72-9c2.51-4.77,3.79-10.62,3.79-17.4C94.31,95.12,86.4,86.79,70.79,83.09Z" style="fill:#ccc"/><path d="M68.56,62.43a41.31,41.31,0,0,0,14.93,7.38C89.1,65.19,91.95,58,91.95,48.34c0-15.08-5-22.42-15.14-22.42-10.69,0-15.89,7.33-15.89,22.42C60.91,53.67,63.48,58.41,68.56,62.43Z" style="fill:#ccc"/><path d="M58.74,75.08h0l.11-1h0c0-.06,0-.12,0-.18,0-5.49-3.24-8.54-9.92-9.34h0a30.92,30.92,0,0,0-3.66-.22c-3.26,0-6,1.51-8.51,4.62a25,25,0,0,0-4.48,9c2.8,3.34,7.17,5,13,5,8.49,0,12.89-2.59,13.46-7.91Z" style="fill:#ccc"/><path d="M117.09,64.08a24.9,24.9,0,0,0-9-1.31,25.67,25.67,0,0,0-4.24.37h0a19.72,19.72,0,0,0-6.42,2.19c-3.49,2-5.25,4.71-5.36,8.22v.34l-.3.16-.05,0h0l.35.13,0,.38c.23,3.35,2,5.82,5.39,7.55a20.2,20.2,0,0,0,6.81,2h0a27.87,27.87,0,0,0,3.79.27c7.81,0,12.73-4.66,15-14.25A12.48,12.48,0,0,0,117.09,64.08Z" style="fill:#ccc"/><path d="M77,0a77,77,0,1,0,77,77A77,77,0,0,0,77,0Zm75.38,91.74-.06.31-.29.12a21.38,21.38,0,0,1-8.06,1.42,15.54,15.54,0,0,1-9.4-3.4,20.66,20.66,0,0,1-5.62-6.55,18.93,18.93,0,0,1-7.25,8.3A22,22,0,0,1,110,95.41h0a34.55,34.55,0,0,1,1.38,9.62c0,10.9-3.3,19.58-9.82,25.8-6.62,6.41-15.44,9.66-26.24,9.66-10.3,0-18.62-3-24.74-8.77s-9.23-14-9.23-24.32a27.65,27.65,0,0,1,3.78-13.85l-.66,0a15.58,15.58,0,0,1-9.41-3.4,20.7,20.7,0,0,1-5.62-6.55,19,19,0,0,1-7.25,8.31,22,22,0,0,1-11.84,3.48,26.37,26.37,0,0,1-8-1.18L2,94.13l-.07-.33A77.68,77.68,0,0,1,.36,84l-.08-.87.84.25a25.17,25.17,0,0,0,7.49,1.07c7.81,0,12.73-4.66,15-14.26a12.43,12.43,0,0,0-6-6.12,24.77,24.77,0,0,0-9-1.32A23.61,23.61,0,0,0,2,63.66l-.91.26L1.31,63A77.18,77.18,0,0,1,4,52.55l.11-.33.35-.06a27.23,27.23,0,0,1,4.41-.35,17.92,17.92,0,0,1,11.44,4.25,21.29,21.29,0,0,1,6.61,8.76,24.66,24.66,0,0,1,6.67-7.41,17.59,17.59,0,0,1,10.58-3.59l.66,0h0a28.3,28.3,0,0,1-.27-3.72c0-9.23,3-16.66,8.81-22.09,6-5.42,13.79-8.17,23.1-8.17,9.59,0,17.4,2.59,23.22,7.71s8.67,12.57,8.67,22.1a20.25,20.25,0,0,1-.13,2.14h.09a18,18,0,0,1,11.44,4.25,21.15,21.15,0,0,1,6.6,8.76,24.87,24.87,0,0,1,6.68-7.41,17.57,17.57,0,0,1,10.58-3.59,21.85,21.85,0,0,1,6.6,1l.3.09.09.3a76.41,76.41,0,0,1,2.17,9.5l.15.95-.91-.29a23.78,23.78,0,0,0-7.29-1c-3.26,0-6,1.51-8.51,4.62a25.42,25.42,0,0,0-4.47,9c2.8,3.34,7.17,5,13,5a23,23,0,0,0,8-1.19l.86-.32-.07.91A75.13,75.13,0,0,1,152.35,91.74Z" style="fill:#ccc"/></g></g></svg>