<svg xmlns="http://www.w3.org/2000/svg" viewBox="0 0 35 35"><title>icon-line</title><g id="圖層_6" data-name="圖層 6"><circle cx="17.5" cy="17.5" r="17.5" style="fill:#359d2f"/><path d="M17.5,5.59C10.61,5.59,5,10.14,5,15.73c0,5,4.44,9.21,10.45,10,1.46.31,1.3.85,1,2.82-.06.32-.25,1.23,1.08.67S24.7,25,27.32,22A9.06,9.06,0,0,0,30,15.73C30,10.14,24.39,5.59,17.5,5.59ZM13.09,18.71a.24.24,0,0,1-.25.25H9.34a.27.27,0,0,1-.17-.07.23.23,0,0,1-.07-.17V13.27A.24.24,0,0,1,9.34,13h.87a.24.24,0,0,1,.24.24V17.6h2.38a.25.25,0,0,1,.24.25Zm2.11,0A.24.24,0,0,1,15,19h-.87a.24.24,0,0,1-.25-.24V13.27a.24.24,0,0,1,.25-.24H15a.25.25,0,0,1,.25.24Zm6,0A.24.24,0,0,1,21,19h-.87a.25.25,0,0,1-.2-.1l-2.5-3.37v3.23a.24.24,0,0,1-.24.24H16.3a.24.24,0,0,1-.24-.24V13.28A.24.24,0,0,1,16.3,13h.87a.23.23,0,0,1,.2.11l2.5,3.37V13.28a.24.24,0,0,1,.24-.25H21a.24.24,0,0,1,.25.24Zm4.84-4.58a.24.24,0,0,1-.24.25H23.46v.92h2.38a.24.24,0,0,1,.24.24v.88a.24.24,0,0,1-.24.25H23.46v.92h2.38a.24.24,0,0,1,.24.25v.87a.24.24,0,0,1-.24.24h-3.5a.25.25,0,0,1-.25-.24V13.27a.25.25,0,0,1,.25-.24h3.5a.26.26,0,0,1,.24.24Z" style="fill:#fff"/></g></svg>