<svg xmlns="http://www.w3.org/2000/svg" viewBox="0 0 35 35"><title>icon-mail</title><g id="圖層_6" data-name="圖層 6"><circle cx="17.5" cy="17.5" r="17.5" style="fill:#ff7e27"/><path d="M27.6,14.83A.25.25,0,0,1,28,15v8.39a2,2,0,0,1-2,2H9a2,2,0,0,1-2-2V15a.25.25,0,0,1,.4-.19c.92.71,2.14,1.62,6.32,4.66.86.63,2.33,2,3.78,2s3-1.35,3.78-2C25.47,16.45,26.68,15.54,27.6,14.83Zm-10.1,5.3c1,0,2.32-1.2,3-1.7,5.44-3.95,5.86-4.29,7.11-5.28a1,1,0,0,0,.38-.77v-.78a2,2,0,0,0-2-2H9a2,2,0,0,0-2,2v.78a1,1,0,0,0,.38.77c1.26,1,1.67,1.33,7.11,5.28.69.5,2.06,1.71,3,1.7Z" style="fill:#fff"/></g></svg>